<svg xmlns="http://www.w3.org/2000/svg" viewBox="0 0 760 234" width="760" height="234" role="img" aria-label="Lines of code: 3,334 of plugin code and 12,012 of Apple HIG reference.">
  <style>
    text { font-family: -apple-system, BlinkMacSystemFont, 'Segoe UI', Helvetica, Arial, sans-serif; fill: #1f2328; }
    .muted { fill: #656d76; }
    .track { fill: #eaeef2; }
    .value { font-weight: 600; }
    @media (prefers-color-scheme: dark) {
      text { fill: #e6edf3; }
      .muted { fill: #8b949e; }
      .track { fill: #21262d; }
    }
  </style>
  <text x="24" y="38" font-size="17" font-weight="700">Lines of code</text>
  <text class="muted" x="736" y="38" font-size="12" text-anchor="end">auto-updated by CI</text>

  <text x="24" y="92" font-size="13" font-weight="600">Plugin code</text>
  <rect class="track" x="200" y="72" width="470" height="30" rx="5"/>
  <rect x="200.0" y="72" width="84.2" height="30" fill="#e34c26"><title>HTML: 2,152 lines</title></rect><rect x="284.2" y="72" width="33.8" height="30" fill="#f1c40f"><title>JavaScript: 865 lines</title></rect><rect x="318.0" y="72" width="5.4" height="30" fill="#7fb86b"><title>JSON: 137 lines</title></rect><rect x="323.4" y="72" width="2.9" height="30" fill="#f05138"><title>Swift: 73 lines</title></rect><rect x="326.3" y="72" width="1.8" height="30" fill="#9aa0a6"><title>Other: 45 lines</title></rect><rect x="328.0" y="72" width="1.6" height="30" fill="#2aa198"><title>YAML: 41 lines</title></rect><rect x="329.6" y="72" width="0.8" height="30" fill="#ff9f1a"><title>SVG: 21 lines</title></rect>
  <text class="value" x="340.45121545121543" y="92" font-size="13">3,334</text>

  <text x="24" y="144" font-size="13" font-weight="600">HIG reference</text>
  <text class="muted" x="24" y="159" font-size="10.5">Markdown</text>
  <rect class="track" x="200" y="124" width="470" height="30" rx="5"/>
  <rect x="200" y="124" width="470.0" height="30" rx="5" fill="#4a7fd6"><title>Apple HIG reference: 12,012 lines</title></rect>
  <text class="value" x="680" y="144" font-size="13">12,012</text>

  <rect x="24" y="175" width="11" height="11" rx="2" fill="#e34c26"/><text class="muted" x="40" y="184" font-size="11.5">HTML 2,152</text><rect x="125" y="175" width="11" height="11" rx="2" fill="#f1c40f"/><text class="muted" x="141" y="184" font-size="11.5">JavaScript 865</text><rect x="252.8" y="175" width="11" height="11" rx="2" fill="#7fb86b"/><text class="muted" x="268.8" y="184" font-size="11.5">JSON 137</text><rect x="340.4" y="175" width="11" height="11" rx="2" fill="#f05138"/><text class="muted" x="356.4" y="184" font-size="11.5">Swift 73</text><rect x="428" y="175" width="11" height="11" rx="2" fill="#9aa0a6"/><text class="muted" x="444" y="184" font-size="11.5">Other 45</text><rect x="515.6" y="175" width="11" height="11" rx="2" fill="#2aa198"/><text class="muted" x="531.6" y="184" font-size="11.5">YAML 41</text><rect x="596.5" y="175" width="11" height="11" rx="2" fill="#ff9f1a"/><text class="muted" x="612.5" y="184" font-size="11.5">SVG 21</text>
  <text class="muted" x="24" y="218" font-size="11.5">15,346 lines across 202 text files · updated 2026-06-17 · binary assets excluded</text>
</svg>
